<mxfile host="app.diagrams.net" modified="2023-12-01T09:25:22.996Z" agent="Mozilla/5.0 (Windows NT 10.0; Win64; x64) AppleWebKit/537.36 (KHTML, like Gecko) Chrome/119.0.0.0 Safari/537.36 Edg/119.0.0.0" etag="4xojMuU5Pp1q3YYwnez9" version="22.1.5" type="device">
  <diagram name="Страница — 1" id="U0yQ_sd-NlHDUaVs2jcQ">
    <mxGraphModel dx="2253" dy="801" grid="1" gridSize="10" guides="1" tooltips="1" connect="1" arrows="1" fold="1" page="1" pageScale="1" pageWidth="827" pageHeight="1169" math="0" shadow="0">
      <root>
        <mxCell id="0" />
        <mxCell id="1" parent="0" />
        <mxCell id="ZS6KNnKp7yA6rNi7pQko-17" value="Аббитуриенты" style="swimlane;fontStyle=0;childLayout=stackLayout;horizontal=1;startSize=26;fillColor=none;horizontalStack=0;resizeParent=1;resizeParentMax=0;resizeLast=0;collapsible=1;marginBottom=0;html=1;fontSize=16;" vertex="1" parent="1">
          <mxGeometry x="110" y="300" width="140" height="182" as="geometry" />
        </mxCell>
        <mxCell id="ZS6KNnKp7yA6rNi7pQko-19" value="Аттестат" style="text;strokeColor=none;fillColor=none;align=left;verticalAlign=top;spacingLeft=4;spacingRight=4;overflow=hidden;rotatable=0;points=[[0,0.5],[1,0.5]];portConstraint=eastwest;whiteSpace=wrap;html=1;fontSize=16;" vertex="1" parent="ZS6KNnKp7yA6rNi7pQko-17">
          <mxGeometry y="26" width="140" height="26" as="geometry" />
        </mxCell>
        <mxCell id="ZS6KNnKp7yA6rNi7pQko-18" value="ФИО" style="text;strokeColor=none;fillColor=none;align=left;verticalAlign=top;spacingLeft=4;spacingRight=4;overflow=hidden;rotatable=0;points=[[0,0.5],[1,0.5]];portConstraint=eastwest;whiteSpace=wrap;html=1;fontSize=16;" vertex="1" parent="ZS6KNnKp7yA6rNi7pQko-17">
          <mxGeometry y="52" width="140" height="26" as="geometry" />
        </mxCell>
        <mxCell id="ZS6KNnKp7yA6rNi7pQko-20" value="Специальность" style="text;strokeColor=none;fillColor=none;align=left;verticalAlign=top;spacingLeft=4;spacingRight=4;overflow=hidden;rotatable=0;points=[[0,0.5],[1,0.5]];portConstraint=eastwest;whiteSpace=wrap;html=1;fontSize=16;" vertex="1" parent="ZS6KNnKp7yA6rNi7pQko-17">
          <mxGeometry y="78" width="140" height="26" as="geometry" />
        </mxCell>
        <mxCell id="ZS6KNnKp7yA6rNi7pQko-21" value="Паспорт" style="text;strokeColor=none;fillColor=none;align=left;verticalAlign=top;spacingLeft=4;spacingRight=4;overflow=hidden;rotatable=0;points=[[0,0.5],[1,0.5]];portConstraint=eastwest;whiteSpace=wrap;html=1;fontSize=16;" vertex="1" parent="ZS6KNnKp7yA6rNi7pQko-17">
          <mxGeometry y="104" width="140" height="26" as="geometry" />
        </mxCell>
        <mxCell id="ZS6KNnKp7yA6rNi7pQko-47" value="Документы&lt;br&gt;" style="text;strokeColor=none;fillColor=none;align=left;verticalAlign=top;spacingLeft=4;spacingRight=4;overflow=hidden;rotatable=0;points=[[0,0.5],[1,0.5]];portConstraint=eastwest;whiteSpace=wrap;html=1;fontSize=16;" vertex="1" parent="ZS6KNnKp7yA6rNi7pQko-17">
          <mxGeometry y="130" width="140" height="26" as="geometry" />
        </mxCell>
        <mxCell id="ZS6KNnKp7yA6rNi7pQko-49" value="Зачислеление&lt;br&gt;" style="text;strokeColor=none;fillColor=none;align=left;verticalAlign=top;spacingLeft=4;spacingRight=4;overflow=hidden;rotatable=0;points=[[0,0.5],[1,0.5]];portConstraint=eastwest;whiteSpace=wrap;html=1;fontSize=16;" vertex="1" parent="ZS6KNnKp7yA6rNi7pQko-17">
          <mxGeometry y="156" width="140" height="26" as="geometry" />
        </mxCell>
        <mxCell id="ZS6KNnKp7yA6rNi7pQko-22" value="Документы" style="swimlane;fontStyle=0;childLayout=stackLayout;horizontal=1;startSize=26;fillColor=none;horizontalStack=0;resizeParent=1;resizeParentMax=0;resizeLast=0;collapsible=1;marginBottom=0;html=1;fontSize=16;" vertex="1" parent="1">
          <mxGeometry x="-160" y="430" width="140" height="104" as="geometry" />
        </mxCell>
        <mxCell id="ZS6KNnKp7yA6rNi7pQko-24" value="Аттестат" style="text;strokeColor=none;fillColor=none;align=left;verticalAlign=top;spacingLeft=4;spacingRight=4;overflow=hidden;rotatable=0;points=[[0,0.5],[1,0.5]];portConstraint=eastwest;whiteSpace=wrap;html=1;fontSize=16;" vertex="1" parent="ZS6KNnKp7yA6rNi7pQko-22">
          <mxGeometry y="26" width="140" height="26" as="geometry" />
        </mxCell>
        <mxCell id="ZS6KNnKp7yA6rNi7pQko-25" value="Специальность" style="text;strokeColor=none;fillColor=none;align=left;verticalAlign=top;spacingLeft=4;spacingRight=4;overflow=hidden;rotatable=0;points=[[0,0.5],[1,0.5]];portConstraint=eastwest;whiteSpace=wrap;html=1;fontSize=16;" vertex="1" parent="ZS6KNnKp7yA6rNi7pQko-22">
          <mxGeometry y="52" width="140" height="26" as="geometry" />
        </mxCell>
        <mxCell id="ZS6KNnKp7yA6rNi7pQko-26" value="Паспорт" style="text;strokeColor=none;fillColor=none;align=left;verticalAlign=top;spacingLeft=4;spacingRight=4;overflow=hidden;rotatable=0;points=[[0,0.5],[1,0.5]];portConstraint=eastwest;whiteSpace=wrap;html=1;fontSize=16;" vertex="1" parent="ZS6KNnKp7yA6rNi7pQko-22">
          <mxGeometry y="78" width="140" height="26" as="geometry" />
        </mxCell>
        <mxCell id="ZS6KNnKp7yA6rNi7pQko-27" value="Приёмная коммисия" style="swimlane;fontStyle=0;childLayout=stackLayout;horizontal=1;startSize=26;fillColor=none;horizontalStack=0;resizeParent=1;resizeParentMax=0;resizeLast=0;collapsible=1;marginBottom=0;html=1;fontSize=16;" vertex="1" parent="1">
          <mxGeometry x="330" y="140" width="140" height="78" as="geometry" />
        </mxCell>
        <mxCell id="ZS6KNnKp7yA6rNi7pQko-28" value="Документы" style="text;strokeColor=none;fillColor=none;align=left;verticalAlign=top;spacingLeft=4;spacingRight=4;overflow=hidden;rotatable=0;points=[[0,0.5],[1,0.5]];portConstraint=eastwest;whiteSpace=wrap;html=1;fontSize=16;" vertex="1" parent="ZS6KNnKp7yA6rNi7pQko-27">
          <mxGeometry y="26" width="140" height="26" as="geometry" />
        </mxCell>
        <mxCell id="ZS6KNnKp7yA6rNi7pQko-29" value="Аббитуриент&lt;br&gt;" style="text;strokeColor=none;fillColor=none;align=left;verticalAlign=top;spacingLeft=4;spacingRight=4;overflow=hidden;rotatable=0;points=[[0,0.5],[1,0.5]];portConstraint=eastwest;whiteSpace=wrap;html=1;fontSize=16;" vertex="1" parent="ZS6KNnKp7yA6rNi7pQko-27">
          <mxGeometry y="52" width="140" height="26" as="geometry" />
        </mxCell>
        <mxCell id="ZS6KNnKp7yA6rNi7pQko-41" value="Зачисление" style="swimlane;fontStyle=0;childLayout=stackLayout;horizontal=1;startSize=26;fillColor=none;horizontalStack=0;resizeParent=1;resizeParentMax=0;resizeLast=0;collapsible=1;marginBottom=0;html=1;fontSize=16;" vertex="1" parent="1">
          <mxGeometry x="840" y="217" width="200" height="156" as="geometry" />
        </mxCell>
        <mxCell id="ZS6KNnKp7yA6rNi7pQko-42" value="ДМГ" style="text;strokeColor=none;fillColor=none;align=left;verticalAlign=top;spacingLeft=4;spacingRight=4;overflow=hidden;rotatable=0;points=[[0,0.5],[1,0.5]];portConstraint=eastwest;whiteSpace=wrap;html=1;fontSize=16;" vertex="1" parent="ZS6KNnKp7yA6rNi7pQko-41">
          <mxGeometry y="26" width="200" height="26" as="geometry" />
        </mxCell>
        <mxCell id="ZS6KNnKp7yA6rNi7pQko-43" value="Специальность" style="text;strokeColor=none;fillColor=none;align=left;verticalAlign=top;spacingLeft=4;spacingRight=4;overflow=hidden;rotatable=0;points=[[0,0.5],[1,0.5]];portConstraint=eastwest;whiteSpace=wrap;html=1;fontSize=16;" vertex="1" parent="ZS6KNnKp7yA6rNi7pQko-41">
          <mxGeometry y="52" width="200" height="26" as="geometry" />
        </mxCell>
        <mxCell id="ZS6KNnKp7yA6rNi7pQko-55" value="ФИО Аббитуриента&lt;br&gt;" style="text;strokeColor=none;fillColor=none;align=left;verticalAlign=top;spacingLeft=4;spacingRight=4;overflow=hidden;rotatable=0;points=[[0,0.5],[1,0.5]];portConstraint=eastwest;whiteSpace=wrap;html=1;fontSize=16;" vertex="1" parent="ZS6KNnKp7yA6rNi7pQko-41">
          <mxGeometry y="78" width="200" height="26" as="geometry" />
        </mxCell>
        <mxCell id="ZS6KNnKp7yA6rNi7pQko-59" value="Сдали оригинал" style="text;strokeColor=none;fillColor=none;align=left;verticalAlign=top;spacingLeft=4;spacingRight=4;overflow=hidden;rotatable=0;points=[[0,0.5],[1,0.5]];portConstraint=eastwest;whiteSpace=wrap;html=1;fontSize=16;" vertex="1" parent="ZS6KNnKp7yA6rNi7pQko-41">
          <mxGeometry y="104" width="200" height="26" as="geometry" />
        </mxCell>
        <mxCell id="ZS6KNnKp7yA6rNi7pQko-64" value="Средний балл&lt;br&gt;" style="text;strokeColor=none;fillColor=none;align=left;verticalAlign=top;spacingLeft=4;spacingRight=4;overflow=hidden;rotatable=0;points=[[0,0.5],[1,0.5]];portConstraint=eastwest;whiteSpace=wrap;html=1;fontSize=16;" vertex="1" parent="ZS6KNnKp7yA6rNi7pQko-41">
          <mxGeometry y="130" width="200" height="26" as="geometry" />
        </mxCell>
        <mxCell id="ZS6KNnKp7yA6rNi7pQko-48" style="edgeStyle=none;curved=1;rounded=0;orthogonalLoop=1;jettySize=auto;html=1;entryX=1.021;entryY=0.092;entryDx=0;entryDy=0;entryPerimeter=0;fontSize=12;startSize=8;endSize=8;" edge="1" parent="1" source="ZS6KNnKp7yA6rNi7pQko-47" target="ZS6KNnKp7yA6rNi7pQko-22">
          <mxGeometry relative="1" as="geometry" />
        </mxCell>
        <mxCell id="ZS6KNnKp7yA6rNi7pQko-51" value="Оригиналы аттестатов" style="swimlane;fontStyle=0;childLayout=stackLayout;horizontal=1;startSize=26;fillColor=none;horizontalStack=0;resizeParent=1;resizeParentMax=0;resizeLast=0;collapsible=1;marginBottom=0;html=1;fontSize=16;" vertex="1" parent="1">
          <mxGeometry x="520" y="230" width="200" height="104" as="geometry" />
        </mxCell>
        <mxCell id="ZS6KNnKp7yA6rNi7pQko-52" value="ФИО&lt;br&gt;" style="text;strokeColor=none;fillColor=none;align=left;verticalAlign=top;spacingLeft=4;spacingRight=4;overflow=hidden;rotatable=0;points=[[0,0.5],[1,0.5]];portConstraint=eastwest;whiteSpace=wrap;html=1;fontSize=16;" vertex="1" parent="ZS6KNnKp7yA6rNi7pQko-51">
          <mxGeometry y="26" width="200" height="26" as="geometry" />
        </mxCell>
        <mxCell id="ZS6KNnKp7yA6rNi7pQko-53" value="Средний балл" style="text;strokeColor=none;fillColor=none;align=left;verticalAlign=top;spacingLeft=4;spacingRight=4;overflow=hidden;rotatable=0;points=[[0,0.5],[1,0.5]];portConstraint=eastwest;whiteSpace=wrap;html=1;fontSize=16;" vertex="1" parent="ZS6KNnKp7yA6rNi7pQko-51">
          <mxGeometry y="52" width="200" height="26" as="geometry" />
        </mxCell>
        <mxCell id="ZS6KNnKp7yA6rNi7pQko-63" value="Аттестат&lt;br&gt;" style="text;strokeColor=none;fillColor=none;align=left;verticalAlign=top;spacingLeft=4;spacingRight=4;overflow=hidden;rotatable=0;points=[[0,0.5],[1,0.5]];portConstraint=eastwest;whiteSpace=wrap;html=1;fontSize=16;" vertex="1" parent="ZS6KNnKp7yA6rNi7pQko-51">
          <mxGeometry y="78" width="200" height="26" as="geometry" />
        </mxCell>
        <mxCell id="ZS6KNnKp7yA6rNi7pQko-58" style="edgeStyle=none;curved=1;rounded=0;orthogonalLoop=1;jettySize=auto;html=1;entryX=0;entryY=0;entryDx=0;entryDy=0;fontSize=12;startSize=8;endSize=8;" edge="1" parent="1" source="ZS6KNnKp7yA6rNi7pQko-28" target="ZS6KNnKp7yA6rNi7pQko-51">
          <mxGeometry relative="1" as="geometry" />
        </mxCell>
        <mxCell id="ZS6KNnKp7yA6rNi7pQko-61" value="" style="shape=doubleArrow;whiteSpace=wrap;html=1;fontSize=16;rotation=-45;" vertex="1" parent="1">
          <mxGeometry x="240" y="230" width="100" height="60" as="geometry" />
        </mxCell>
        <mxCell id="ZS6KNnKp7yA6rNi7pQko-65" style="edgeStyle=none;curved=1;rounded=0;orthogonalLoop=1;jettySize=auto;html=1;fontSize=12;startSize=8;endSize=8;" edge="1" parent="1" source="ZS6KNnKp7yA6rNi7pQko-64" target="ZS6KNnKp7yA6rNi7pQko-53">
          <mxGeometry relative="1" as="geometry" />
        </mxCell>
      </root>
    </mxGraphModel>
  </diagram>
</mxfile>
